<svg
  width="129"
  height="40"
  viewBox="0 0 129 40"
  fill="none"
  xmlns="http://www.w3.org/2000/svg"
>
  <g class="hidden md:block">
    <path
      d="M17.7079 11.6314L16.9479 26.2994L13.1733 27.11L12.5146 16.3181H8.23328L7.77729 26.6034C6.73863 26.6034 5.59863 26.654 4.30664 26.7807C3.01465 26.9074 1.59599 27.0847 0 27.3127L0.759995 22.93C1.89999 22.7527 2.96398 22.6767 3.95198 22.6767L3.54664 16.3181C2.27999 16.3181 1.41866 16.1154 0.962661 15.7101L1.87466 10.9221C3.01465 11.3781 4.25597 11.6061 5.6493 11.6061H17.7079V11.6314Z"
      fill="#c6cfde"
    />
    <path
      d="M26.5997 11.6307L25.9411 26.3746L22.2424 27.1093L21.6851 16.3174C20.7224 16.216 20.0638 16.0134 19.6584 15.7094L20.5198 10.9214C21.6598 11.4027 22.9264 11.6307 24.3198 11.6307H26.5997Z"
      fill="#c6cfde"
    />
    <path
      d="M45.321 11.6307L44.0797 20.3707C43.7504 22.6 43.1424 24.1453 42.205 25.032C41.4704 25.7413 40.4824 26.2733 39.241 26.6786C38.1264 27.0333 37.0371 27.1853 35.9477 27.1853L36.5304 22.8533C36.9357 22.8787 37.4424 22.8533 37.9997 22.752C38.6584 22.6507 39.1144 22.4733 39.3424 22.2707C39.5704 22.068 39.697 21.916 39.7477 21.8147C39.8744 21.6373 39.925 21.384 39.9504 21.08L40.153 16.2667H30.8811C29.9184 16.2667 29.1838 16.064 28.7278 15.6587L29.6398 10.8707C30.7798 11.3267 32.0211 11.5547 33.4144 11.5547H45.321V11.6307ZM34.2504 18.0654L33.7944 30.9093L30.2731 32.3786L29.5131 18.876L34.2504 18.0654Z"
      fill="#c6cfde"
    />
    <path
      d="M62.497 11.6308L61.6357 15.9627C60.7743 16.2161 60.0143 16.3681 59.4317 16.4187L58.9757 26.4507L55.3277 27.1093L54.669 16.5961H49.2731C48.3104 16.5961 47.5757 16.3934 47.1198 15.9881L48.0064 10.9468C49.1464 11.4028 50.3877 11.6308 51.7811 11.6308H62.497Z"
      fill="#c6cfde"
    />
    <path
      d="M80.1035 22.752C80.1035 26.0706 77.6208 29.0853 71.9969 29.0853C69.4129 29.0853 66.6769 28.4519 64.8022 27.2613L66.6769 23.3093C68.1969 24.3226 70.0462 24.8546 71.8195 24.8546C73.5929 24.8546 74.7835 24.1453 74.7835 22.8786C74.7835 21.7386 74.0235 21.004 71.1862 21.004H66.1449L67.0822 10.1614H78.9128V14.2147H71.4395L71.2115 16.9253H72.4529C77.9502 16.9253 80.1035 19.4587 80.1035 22.752Z"
      fill="#718096"
    />
  </g>
  <path
    d="M118.553 6.96554L116.81 10.6957C119.344 12.8446 120.966 16.0477 120.966 19.6156C120.966 26.0623 115.715 31.3129 109.269 31.3129C102.822 31.3129 97.5712 26.0623 97.5712 19.6156C97.5712 13.6758 102.011 8.7698 107.748 8.01971L107.545 4.00574C99.6998 4.87746 93.5775 11.5471 93.5775 19.6156C93.5775 28.272 100.632 35.3269 109.289 35.3269C117.945 35.3269 125 28.272 125 19.6156C124.96 14.4259 122.425 9.82398 118.553 6.96554Z"
    fill="#718096"
  />
  <path
    d="M110.931 19.717C110.586 20.4468 109.877 20.8726 109.127 20.8726C108.843 20.8726 108.559 20.8118 108.275 20.6901C107.261 20.2239 106.836 19.0278 107.302 18.0344L111.884 8.22247C111.519 8.14138 111.134 8.06028 110.748 8.01974H110.728C110.627 8.01974 110.546 7.99947 110.444 7.99947C110.343 7.99947 110.242 7.97919 110.14 7.97919C110.019 7.97919 109.917 7.95892 109.796 7.95892C109.633 7.95892 109.451 7.93865 109.289 7.93865H109.208L109.005 3.94495C109.045 3.94495 109.086 3.94495 109.127 3.94495C109.167 3.94495 109.208 3.94495 109.248 3.94495C109.816 3.94495 110.363 3.96522 110.931 4.02604C113.222 4.26931 115.391 5.01939 117.276 6.13439L110.931 19.717Z"
    fill="#D25531"
  />
</svg>
